<svg width="61" height="61" viewBox="0 0 61 61" fill="none" xmlns="http://www.w3.org/2000/svg">
<g clip-path="url(#clip0_406_43)">
<path d="M60.5001 50.7338V10.4438L39.9821 31.0358L60.5001 50.7338Z" fill="#F24826"/>
<path d="M0.5 10.4409V50.7339L21.019 31.0349L0.5 10.4409Z" fill="#F24826"/>
<path d="M1.88696 9L22.889 30.08C23.01 30.131 23.36 30.495 23.406 30.599L29.347 36.562C29.982 37.153 31.019 37.152 31.68 36.537L37.591 30.604C37.637 30.499 37.991 30.131 38.113 30.08L59.115 9H1.88696Z" fill="#F24826"/>
<path d="M38.57 32.4541L33.07 37.9741C32.34 38.6541 31.413 38.9931 30.49 38.9931C29.576 38.9931 28.667 38.6611 27.957 38.0001L22.431 32.4541L2.06897 52.0001H58.931L38.57 32.4541Z" fill="#F24826"/>
</g>
<defs>
<clipPath id="clip0_406_43">
<rect width="60" height="60" fill="white" transform="translate(0.5 0.5)"/>
</clipPath>
</defs>
</svg>
