<svg width="513" height="513" viewBox="0 0 513 513" fill="none" xmlns="http://www.w3.org/2000/svg">
<g clip-path="url(#clip0_406_22)">
<path d="M502.55 407.627L445.789 369.783L395.33 336.15C385.592 329.671 372.505 331.795 365.316 341.023L334.093 381.162C327.386 389.872 315.321 392.375 305.703 387.05C284.517 375.265 259.464 364.169 204.186 308.82C148.908 253.471 137.741 228.489 125.956 207.303C120.631 197.685 123.134 185.62 131.844 178.914L171.983 147.691C181.21 140.503 183.335 127.416 176.856 117.677L144.256 68.772L105.379 10.456C98.762 0.530021 85.516 -2.44998 75.286 3.68502L30.45 30.583C18.333 37.722 9.426 49.25 5.574 62.777C-6.687 107.48 -9.159 206.093 148.881 364.133C306.921 522.173 405.525 519.693 450.228 507.431C463.755 503.58 475.283 494.673 482.422 482.555L509.32 437.72C515.456 427.489 512.476 414.244 502.55 407.627Z" fill="#F24826"/>
<path d="M494.843 106.429H353.602C343.863 106.458 335.976 114.346 335.947 124.084V212.36C335.976 222.099 343.864 229.986 353.602 230.015H397.74V282.981L450.706 230.015H494.844C504.583 229.986 512.47 222.098 512.499 212.36V124.084C512.469 114.346 504.582 106.459 494.843 106.429ZM415.395 177.05H371.257C366.382 177.05 362.429 173.098 362.429 168.222C362.429 163.347 366.381 159.394 371.257 159.394H415.395C420.27 159.394 424.223 163.346 424.223 168.222C424.223 173.098 420.27 177.05 415.395 177.05ZM477.188 177.05H450.705C445.83 177.05 441.877 173.098 441.877 168.222C441.877 163.347 445.829 159.394 450.705 159.394H477.188C482.063 159.394 486.016 163.346 486.016 168.222C486.016 173.098 482.063 177.05 477.188 177.05Z" fill="#F24826"/>
</g>
<defs>
<clipPath id="clip0_406_22">
<rect width="512.006" height="512.006" fill="white" transform="translate(0.5 0.5)"/>
</clipPath>
</defs>
</svg>
