<svg width="62" height="62" viewBox="0 0 62 62" fill="none" xmlns="http://www.w3.org/2000/svg">
<g clip-path="url(#clip0_406_5)">
<path d="M50.716 38.084H43.555L46.602 33.684C52.357 26.013 51.524 13.404 44.821 6.70196C41.2 3.07996 36.384 1.08496 31.261 1.08496C26.139 1.08496 21.323 3.07996 17.701 6.70196C10.998 13.404 10.165 26.014 15.897 33.654L18.965 38.085H11.452L0.5 61.084H61.668L50.716 38.084ZM31.438 13.084C35.297 13.084 38.438 16.225 38.438 20.084C38.438 23.943 35.297 27.084 31.438 27.084C27.579 27.084 24.438 23.943 24.438 20.084C24.438 16.225 27.578 13.084 31.438 13.084ZM12.716 40.084H20.35L31.261 55.841L42.171 40.084H49.452L58.5 59.084H3.668L12.716 40.084Z" fill="#F24826"/>
</g>
<defs>
<clipPath id="clip0_406_5">
<rect width="61.168" height="61.168" fill="white" transform="translate(0.5 0.5)"/>
</clipPath>
</defs>
</svg>
